<mxfile host="app.diagrams.net" agent="Mozilla/5.0 (Windows NT 10.0; Win64; x64) AppleWebKit/537.36 (KHTML, like Gecko) Chrome/127.0.0.0 Safari/537.36" version="24.7.7">
  <diagram name="Page-1" id="susAsBvZPmV3oMP2SHvA">
    <mxGraphModel dx="688" dy="971" grid="1" gridSize="10" guides="1" tooltips="1" connect="1" arrows="1" fold="1" page="1" pageScale="1" pageWidth="850" pageHeight="1100" math="0" shadow="0">
      <root>
        <mxCell id="0" />
        <mxCell id="1" parent="0" />
        <mxCell id="ld7JimjzPcvw21RbXaTX-8" value="" style="edgeStyle=orthogonalEdgeStyle;rounded=0;orthogonalLoop=1;jettySize=auto;html=1;" edge="1" parent="1" source="ld7JimjzPcvw21RbXaTX-1" target="ld7JimjzPcvw21RbXaTX-7">
          <mxGeometry relative="1" as="geometry" />
        </mxCell>
        <mxCell id="ld7JimjzPcvw21RbXaTX-1" value="请求页面" style="rounded=1;whiteSpace=wrap;html=1;" vertex="1" parent="1">
          <mxGeometry x="230" y="100" width="120" height="60" as="geometry" />
        </mxCell>
        <mxCell id="ld7JimjzPcvw21RbXaTX-2" value="Workspace diagram&amp;nbsp;" style="rounded=0;whiteSpace=wrap;html=1;fillColor=#fff2cc;strokeColor=#d6b656;" vertex="1" parent="1">
          <mxGeometry x="50" y="30" width="180" height="60" as="geometry" />
        </mxCell>
        <mxCell id="ld7JimjzPcvw21RbXaTX-10" value="" style="edgeStyle=orthogonalEdgeStyle;rounded=0;orthogonalLoop=1;jettySize=auto;html=1;" edge="1" parent="1" source="ld7JimjzPcvw21RbXaTX-7" target="ld7JimjzPcvw21RbXaTX-9">
          <mxGeometry relative="1" as="geometry" />
        </mxCell>
        <mxCell id="ld7JimjzPcvw21RbXaTX-7" value="通过 client 获取 Workspace info" style="whiteSpace=wrap;html=1;rounded=1;" vertex="1" parent="1">
          <mxGeometry x="230" y="240" width="120" height="60" as="geometry" />
        </mxCell>
        <mxCell id="ld7JimjzPcvw21RbXaTX-12" value="" style="edgeStyle=orthogonalEdgeStyle;rounded=0;orthogonalLoop=1;jettySize=auto;html=1;" edge="1" parent="1" source="ld7JimjzPcvw21RbXaTX-9" target="ld7JimjzPcvw21RbXaTX-11">
          <mxGeometry relative="1" as="geometry" />
        </mxCell>
        <mxCell id="ld7JimjzPcvw21RbXaTX-9" value="请求 Workspace API" style="whiteSpace=wrap;html=1;rounded=1;" vertex="1" parent="1">
          <mxGeometry x="230" y="380" width="120" height="60" as="geometry" />
        </mxCell>
        <mxCell id="ld7JimjzPcvw21RbXaTX-16" value="" style="edgeStyle=orthogonalEdgeStyle;rounded=0;orthogonalLoop=1;jettySize=auto;html=1;" edge="1" parent="1" source="ld7JimjzPcvw21RbXaTX-11" target="ld7JimjzPcvw21RbXaTX-15">
          <mxGeometry relative="1" as="geometry" />
        </mxCell>
        <mxCell id="ld7JimjzPcvw21RbXaTX-20" value="" style="edgeStyle=orthogonalEdgeStyle;rounded=0;orthogonalLoop=1;jettySize=auto;html=1;" edge="1" parent="1" source="ld7JimjzPcvw21RbXaTX-11" target="ld7JimjzPcvw21RbXaTX-19">
          <mxGeometry relative="1" as="geometry" />
        </mxCell>
        <mxCell id="ld7JimjzPcvw21RbXaTX-11" value="请求是否成功" style="rhombus;whiteSpace=wrap;html=1;rounded=1;" vertex="1" parent="1">
          <mxGeometry x="250" y="510" width="80" height="80" as="geometry" />
        </mxCell>
        <mxCell id="ld7JimjzPcvw21RbXaTX-15" value="loading: true&lt;br&gt;渲染 loading 页面" style="whiteSpace=wrap;html=1;rounded=1;" vertex="1" parent="1">
          <mxGeometry x="70" y="520" width="120" height="60" as="geometry" />
        </mxCell>
        <mxCell id="ld7JimjzPcvw21RbXaTX-17" value="否" style="text;html=1;align=center;verticalAlign=middle;resizable=0;points=[];autosize=1;strokeColor=none;fillColor=none;" vertex="1" parent="1">
          <mxGeometry x="211" y="519" width="40" height="30" as="geometry" />
        </mxCell>
        <mxCell id="ld7JimjzPcvw21RbXaTX-18" value="是" style="text;html=1;align=center;verticalAlign=middle;resizable=0;points=[];autosize=1;strokeColor=none;fillColor=none;rotation=0;" vertex="1" parent="1">
          <mxGeometry x="250" y="590" width="40" height="30" as="geometry" />
        </mxCell>
        <mxCell id="ld7JimjzPcvw21RbXaTX-22" value="" style="edgeStyle=orthogonalEdgeStyle;rounded=0;orthogonalLoop=1;jettySize=auto;html=1;" edge="1" parent="1" source="ld7JimjzPcvw21RbXaTX-19" target="ld7JimjzPcvw21RbXaTX-21">
          <mxGeometry relative="1" as="geometry" />
        </mxCell>
        <mxCell id="ld7JimjzPcvw21RbXaTX-27" value="" style="edgeStyle=orthogonalEdgeStyle;rounded=0;orthogonalLoop=1;jettySize=auto;html=1;" edge="1" parent="1" source="ld7JimjzPcvw21RbXaTX-19" target="ld7JimjzPcvw21RbXaTX-26">
          <mxGeometry relative="1" as="geometry" />
        </mxCell>
        <mxCell id="ld7JimjzPcvw21RbXaTX-19" value="Tree 是否为为空" style="rhombus;whiteSpace=wrap;html=1;rounded=1;" vertex="1" parent="1">
          <mxGeometry x="250" y="670" width="80" height="80" as="geometry" />
        </mxCell>
        <mxCell id="ld7JimjzPcvw21RbXaTX-21" value="loading: false&lt;br&gt;渲染 Empty&amp;nbsp; 页面" style="rounded=1;whiteSpace=wrap;html=1;" vertex="1" parent="1">
          <mxGeometry x="70" y="680" width="120" height="60" as="geometry" />
        </mxCell>
        <mxCell id="ld7JimjzPcvw21RbXaTX-23" value="是" style="text;html=1;align=center;verticalAlign=middle;resizable=0;points=[];autosize=1;strokeColor=none;fillColor=none;" vertex="1" parent="1">
          <mxGeometry x="211" y="689" width="40" height="30" as="geometry" />
        </mxCell>
        <mxCell id="ld7JimjzPcvw21RbXaTX-29" value="" style="edgeStyle=orthogonalEdgeStyle;rounded=0;orthogonalLoop=1;jettySize=auto;html=1;" edge="1" parent="1" source="ld7JimjzPcvw21RbXaTX-26" target="ld7JimjzPcvw21RbXaTX-28">
          <mxGeometry relative="1" as="geometry" />
        </mxCell>
        <mxCell id="ld7JimjzPcvw21RbXaTX-32" value="" style="edgeStyle=orthogonalEdgeStyle;rounded=0;orthogonalLoop=1;jettySize=auto;html=1;" edge="1" parent="1" source="ld7JimjzPcvw21RbXaTX-26" target="ld7JimjzPcvw21RbXaTX-31">
          <mxGeometry relative="1" as="geometry" />
        </mxCell>
        <mxCell id="ld7JimjzPcvw21RbXaTX-26" value="Tree 是否为single diagram" style="rhombus;whiteSpace=wrap;html=1;rounded=1;" vertex="1" parent="1">
          <mxGeometry x="250" y="830" width="80" height="80" as="geometry" />
        </mxCell>
        <mxCell id="ld7JimjzPcvw21RbXaTX-28" value="不显示 ActivityBar 中的 setting" style="whiteSpace=wrap;html=1;rounded=1;" vertex="1" parent="1">
          <mxGeometry x="70" y="840" width="120" height="60" as="geometry" />
        </mxCell>
        <mxCell id="ld7JimjzPcvw21RbXaTX-30" value="是" style="text;html=1;align=center;verticalAlign=middle;resizable=0;points=[];autosize=1;strokeColor=none;fillColor=none;" vertex="1" parent="1">
          <mxGeometry x="211" y="839" width="40" height="30" as="geometry" />
        </mxCell>
        <mxCell id="ld7JimjzPcvw21RbXaTX-35" value="" style="edgeStyle=orthogonalEdgeStyle;rounded=0;orthogonalLoop=1;jettySize=auto;html=1;" edge="1" parent="1" source="ld7JimjzPcvw21RbXaTX-31" target="ld7JimjzPcvw21RbXaTX-34">
          <mxGeometry relative="1" as="geometry" />
        </mxCell>
        <mxCell id="ld7JimjzPcvw21RbXaTX-31" value="渲染首个 diagram&lt;br&gt;渲染 Tree 在 settings 中" style="whiteSpace=wrap;html=1;rounded=1;" vertex="1" parent="1">
          <mxGeometry x="230" y="1000" width="120" height="60" as="geometry" />
        </mxCell>
        <mxCell id="ld7JimjzPcvw21RbXaTX-33" value="否" style="text;html=1;align=center;verticalAlign=middle;resizable=0;points=[];autosize=1;strokeColor=none;fillColor=none;" vertex="1" parent="1">
          <mxGeometry x="281" y="919" width="40" height="30" as="geometry" />
        </mxCell>
        <mxCell id="ld7JimjzPcvw21RbXaTX-37" value="" style="edgeStyle=orthogonalEdgeStyle;rounded=0;orthogonalLoop=1;jettySize=auto;html=1;" edge="1" parent="1" source="ld7JimjzPcvw21RbXaTX-34" target="ld7JimjzPcvw21RbXaTX-36">
          <mxGeometry relative="1" as="geometry" />
        </mxCell>
        <mxCell id="ld7JimjzPcvw21RbXaTX-39" value="" style="edgeStyle=orthogonalEdgeStyle;rounded=0;orthogonalLoop=1;jettySize=auto;html=1;" edge="1" parent="1" source="ld7JimjzPcvw21RbXaTX-34" target="ld7JimjzPcvw21RbXaTX-38">
          <mxGeometry relative="1" as="geometry" />
        </mxCell>
        <mxCell id="ld7JimjzPcvw21RbXaTX-41" value="" style="edgeStyle=orthogonalEdgeStyle;rounded=0;orthogonalLoop=1;jettySize=auto;html=1;" edge="1" parent="1" source="ld7JimjzPcvw21RbXaTX-34" target="ld7JimjzPcvw21RbXaTX-40">
          <mxGeometry relative="1" as="geometry" />
        </mxCell>
        <mxCell id="ld7JimjzPcvw21RbXaTX-44" style="edgeStyle=orthogonalEdgeStyle;rounded=0;orthogonalLoop=1;jettySize=auto;html=1;" edge="1" parent="1" source="ld7JimjzPcvw21RbXaTX-34" target="ld7JimjzPcvw21RbXaTX-43">
          <mxGeometry relative="1" as="geometry">
            <Array as="points">
              <mxPoint x="290" y="1230" />
              <mxPoint x="140" y="1230" />
            </Array>
          </mxGeometry>
        </mxCell>
        <mxCell id="ld7JimjzPcvw21RbXaTX-34" value="在setting&amp;nbsp; Tree 点击切换 diagram&amp;nbsp;" style="whiteSpace=wrap;html=1;rounded=1;" vertex="1" parent="1">
          <mxGeometry x="230" y="1140" width="120" height="60" as="geometry" />
        </mxCell>
        <mxCell id="ld7JimjzPcvw21RbXaTX-46" value="" style="edgeStyle=orthogonalEdgeStyle;rounded=0;orthogonalLoop=1;jettySize=auto;html=1;" edge="1" parent="1" source="ld7JimjzPcvw21RbXaTX-36" target="ld7JimjzPcvw21RbXaTX-45">
          <mxGeometry relative="1" as="geometry" />
        </mxCell>
        <mxCell id="ld7JimjzPcvw21RbXaTX-36" value="before diagram unchanged and unsaved" style="whiteSpace=wrap;html=1;rounded=1;" vertex="1" parent="1">
          <mxGeometry x="350" y="1270" width="120" height="60" as="geometry" />
        </mxCell>
        <mxCell id="ld7JimjzPcvw21RbXaTX-38" value="Before diagram 正在 running&amp;nbsp;" style="whiteSpace=wrap;html=1;rounded=1;" vertex="1" parent="1">
          <mxGeometry x="30" y="1140" width="120" height="60" as="geometry" />
        </mxCell>
        <mxCell id="ld7JimjzPcvw21RbXaTX-40" value="Before diagram&amp;nbsp; changed and unsave" style="whiteSpace=wrap;html=1;rounded=1;" vertex="1" parent="1">
          <mxGeometry x="430" y="1140" width="120" height="60" as="geometry" />
        </mxCell>
        <mxCell id="ld7JimjzPcvw21RbXaTX-43" value="before diagram click save button" style="whiteSpace=wrap;html=1;rounded=1;" vertex="1" parent="1">
          <mxGeometry x="80" y="1270" width="120" height="60" as="geometry" />
        </mxCell>
        <mxCell id="ld7JimjzPcvw21RbXaTX-45" value="重新渲染 new diagram （重新 init)" style="whiteSpace=wrap;html=1;rounded=1;" vertex="1" parent="1">
          <mxGeometry x="350" y="1410" width="120" height="60" as="geometry" />
        </mxCell>
      </root>
    </mxGraphModel>
  </diagram>
</mxfile>
